<?xml version="1.0" standalone="no"?>
<!DOCTYPE svg PUBLIC "-//W3C//DTD SVG 20010904//EN"
 "http://www.w3.org/TR/2001/REC-SVG-20010904/DTD/svg10.dtd">
<svg version="1.0" xmlns="http://www.w3.org/2000/svg"
 width="450.000000pt" height="450.000000pt" viewBox="0 0 450.000000 450.000000"
 preserveAspectRatio="xMidYMid meet">
<metadata>
Created by potrace 1.14, written by Peter Selinger 2001-2017
</metadata>
<g transform="translate(0.000000,450.000000) scale(0.100000,-0.100000)"
fill="#000000" stroke="none">
<path d="M1190 4240 c0 -5 16 -27 35 -47 19 -20 35 -41 35 -46 0 -4 18 -35 40
-67 22 -32 40 -64 40 -70 0 -7 8 -24 18 -38 11 -15 30 -54 43 -87 13 -33 26
-62 29 -65 3 -3 14 -25 24 -50 10 -25 22 -54 27 -65 4 -11 11 -35 14 -52 4
-18 10 -33 14 -33 12 0 32 -113 29 -165 l-3 -50 -36 37 c-20 20 -50 43 -67 52
-17 9 -35 22 -39 28 -4 7 -30 24 -58 38 -27 14 -56 31 -63 38 -7 6 -23 12 -34
12 -19 0 -18 -2 8 -25 16 -14 34 -25 40 -25 13 0 98 -80 91 -86 -2 -2 -35 7
-73 21 -38 14 -76 25 -86 25 -9 0 -18 4 -20 9 -1 6 -24 15 -50 20 -27 6 -68
16 -93 21 -25 6 -56 10 -70 10 -14 0 -25 5 -25 10 0 6 -33 10 -80 10 -44 0
-80 -4 -80 -8 0 -4 13 -19 30 -32 16 -14 29 -29 30 -35 0 -5 12 -21 26 -34 14
-13 32 -37 40 -53 8 -15 19 -28 24 -28 6 0 10 -6 10 -13 0 -7 22 -43 50 -79
27 -37 50 -73 50 -80 0 -8 8 -23 18 -34 10 -10 29 -46 42 -79 14 -33 30 -64
37 -68 7 -4 13 -17 13 -27 0 -10 4 -21 8 -24 5 -3 17 -34 27 -71 11 -36 22
-65 26 -65 4 0 10 -17 13 -37 24 -136 21 -155 -30 -179 -20 -9 -38 -23 -41
-31 -3 -7 -10 -13 -17 -13 -26 -1 -126 -111 -126 -139 0 -5 -7 -11 -15 -14
-18 -7 -55 -79 -55 -107 0 -11 -4 -20 -8 -20 -5 0 -18 -48 -30 -107 -12 -60
-27 -133 -33 -163 -6 -30 -13 -77 -16 -104 -6 -55 3 -66 53 -66 l31 0 9 -72
c4 -40 7 -170 5 -288 -5 -394 33 -576 131 -624 17 -9 40 -16 50 -16 10 0 21
-6 24 -14 3 -8 22 -17 42 -21 20 -4 41 -10 47 -13 5 -3 16 -7 25 -8 29 -5 45
-10 80 -27 48 -22 272 -57 370 -57 47 0 80 -4 80 -10 0 -5 14 -10 31 -10 31 0
31 0 25 -41 -9 -58 -31 -75 -100 -82 -33 -3 -62 -10 -65 -14 -8 -11 -77 -40
-113 -47 -16 -4 -28 -11 -28 -16 0 -6 -17 -10 -37 -10 -41 0 -113 -20 -153
-42 -31 -16 -130 -118 -130 -134 0 -6 -11 -24 -25 -40 -14 -16 -25 -34 -25
-41 0 -19 22 -63 32 -63 4 0 8 -15 8 -34 0 -26 -5 -36 -20 -41 -11 -3 -20 -11
-20 -17 0 -5 -12 -22 -27 -37 -16 -14 -37 -36 -47 -49 l-19 -22 29 0 c23 0 35
10 59 45 17 25 33 45 38 45 4 0 7 7 7 15 0 8 5 15 10 15 6 0 10 -3 10 -7 0 -5
22 -32 49 -61 40 -43 54 -53 76 -50 l27 3 -36 35 c-21 19 -50 53 -64 74 -98
143 -97 151 12 260 97 97 128 116 188 116 37 -1 78 -17 78 -32 0 -2 -25 -31
-56 -63 -49 -53 -94 -126 -94 -154 0 -5 -5 -11 -12 -13 -18 -6 -16 -207 3
-219 8 -5 77 -8 154 -8 77 1 132 3 122 6 -10 3 -16 10 -14 16 4 12 38 20 116
30 l43 5 -6 -29 -5 -29 334 0 335 0 -6 28 c-4 15 -15 36 -25 48 -11 11 -19 29
-19 40 0 10 -7 28 -15 38 -8 11 -15 28 -15 38 0 10 -4 18 -10 18 -16 0 -32 82
-28 142 4 49 9 61 41 95 37 37 39 38 122 42 78 3 86 1 107 -21 13 -13 40 -36
61 -51 21 -16 62 -53 92 -83 53 -54 54 -56 39 -80 -9 -13 -20 -24 -24 -24 -5
0 -18 -16 -30 -35 -12 -20 -35 -42 -51 -50 -16 -9 -29 -22 -29 -30 0 -8 -4
-15 -9 -15 -5 0 -32 -23 -60 -50 l-51 -50 34 0 c24 0 36 5 40 18 3 9 19 26 36
37 16 11 30 23 30 28 0 4 7 7 15 7 8 0 15 6 15 14 0 7 6 19 13 25 11 9 28 -4
78 -59 35 -39 72 -70 82 -70 17 0 17 3 -5 33 -32 45 -99 112 -109 110 -12 -4
-11 5 1 20 44 55 60 76 60 82 0 4 8 14 18 21 15 12 7 23 -91 118 -60 59 -115
106 -123 106 -17 0 -54 20 -69 37 -5 6 -32 13 -60 16 -62 6 -175 38 -193 54
-7 7 -27 13 -43 13 l-29 0 0 73 0 73 132 17 c72 10 137 22 144 28 7 5 61 23
120 39 60 16 110 34 112 39 2 6 15 11 28 11 50 0 99 55 118 133 3 15 11 27 16
27 6 0 10 13 10 29 0 16 7 45 15 64 8 20 15 47 15 60 0 22 5 25 53 29 28 2 68
11 87 20 86 38 86 37 120 17 18 -11 34 -29 37 -40 3 -10 11 -19 18 -19 8 0 17
-9 20 -20 13 -40 42 -24 80 45 16 27 34 56 42 63 7 7 13 21 13 31 0 10 5 32
11 50 15 41 39 35 96 -25 23 -24 44 -44 47 -44 10 0 6 153 -5 195 -6 22 -17
45 -25 51 -8 7 -16 25 -17 40 l-2 29 70 -2 c103 -2 105 -3 131 -19 47 -31 52
15 7 69 -12 16 -23 35 -23 42 0 8 -14 23 -30 35 -38 27 -40 49 -3 42 15 -3 34
-11 41 -19 15 -15 52 -18 52 -3 0 12 -56 37 -102 45 -21 3 -38 9 -38 12 0 7
41 43 49 43 3 0 21 13 38 28 18 15 51 41 73 57 40 30 51 55 26 55 -7 0 -21
-11 -30 -25 -9 -13 -31 -32 -49 -41 -17 -9 -37 -25 -44 -34 -14 -20 -53 -33
-53 -18 0 12 31 81 40 88 10 9 48 110 83 220 17 56 20 93 21 275 0 185 -2 220
-21 290 -28 102 -46 155 -54 155 -8 0 -19 -52 -19 -86 0 -13 -4 -24 -8 -24 -5
0 -21 -29 -37 -65 -29 -70 -72 -112 -59 -58 4 15 8 100 8 188 0 128 -4 168
-17 200 l-17 40 2 -95 c3 -173 -1 -230 -16 -230 -10 0 -17 16 -21 48 -4 26
-13 74 -20 107 -8 33 -17 77 -21 98 -3 20 -10 37 -14 37 -5 0 -12 15 -15 33
-4 17 -10 37 -14 42 -4 6 -13 29 -21 53 -7 23 -17 42 -21 42 -4 0 -13 17 -19
38 -18 59 -42 112 -52 112 -4 0 -8 6 -8 13 0 17 -39 89 -54 102 -7 6 -25 33
-40 60 -15 28 -36 59 -45 70 -10 11 -21 28 -24 38 -4 9 -17 21 -31 27 -13 5
-27 17 -30 27 -3 10 -33 44 -66 76 -33 32 -60 62 -60 66 0 12 -45 51 -58 51
-7 0 -12 6 -12 13 0 13 -100 94 -128 104 -10 3 -29 17 -44 31 -32 29 -59 24
-53 -10 3 -13 11 -27 18 -33 25 -19 67 -258 67 -383 0 -55 4 -92 10 -92 6 0
10 -7 10 -16 0 -28 -16 -6 -45 63 -16 37 -38 77 -48 88 -10 11 -23 30 -27 42
-5 12 -18 27 -30 33 -23 12 -27 -1 -7 -22 12 -12 40 -66 41 -79 1 -4 13 -21
28 -40 27 -31 47 -94 34 -106 -3 -3 -44 32 -90 79 -47 46 -102 93 -123 104
-20 10 -48 31 -61 47 -13 15 -30 27 -38 27 -8 0 -19 9 -26 20 -7 11 -16 20
-21 20 -4 0 -43 22 -85 49 -125 81 -135 86 -198 112 -32 13 -60 27 -62 32 -2
4 -8 7 -14 7 -5 0 -24 6 -41 13 -48 21 -101 37 -120 37 -9 0 -17 4 -17 9 0 5
-10 11 -22 14 -105 27 -171 47 -181 55 -7 5 -23 12 -37 15 -14 3 -67 14 -119
26 -52 12 -105 21 -118 21 -13 0 -23 4 -23 8 0 8 -133 32 -177 32 -13 0 -23
-4 -23 -10z m500 -1467 c-1 -10 -7 -29 -15 -43 -8 -14 -14 -34 -15 -44 0 -11
-6 -27 -14 -35 -7 -9 -17 -26 -20 -38 -9 -30 16 -31 44 -3 18 18 74 44 125 56
17 5 16 2 -6 -18 -21 -18 -59 -92 -59 -113 0 -10 24 -5 39 9 9 7 52 26 96 42
44 15 86 34 93 41 7 7 25 13 38 13 30 0 155 30 169 41 19 14 180 39 295 45
143 8 212 -4 310 -53 86 -43 147 -99 174 -161 10 -23 23 -42 27 -42 13 0 49
-129 48 -174 0 -22 -3 -35 -6 -28 -3 7 -19 19 -36 26 -18 8 -41 23 -53 34 -27
25 -84 55 -84 44 0 -5 9 -38 20 -72 11 -34 20 -69 20 -77 0 -8 7 -27 15 -41
18 -34 40 -145 55 -282 7 -58 16 -113 21 -122 5 -10 9 -49 9 -88 0 -38 3 -70
8 -70 8 0 42 78 42 98 0 7 6 15 14 18 7 3 22 21 32 40 10 19 23 34 28 34 5 0
24 11 42 25 31 24 84 34 84 17 0 -5 11 -14 25 -20 14 -6 33 -27 42 -47 9 -19
20 -35 24 -35 10 0 25 -48 43 -134 16 -78 8 -118 -30 -153 -13 -12 -24 -26
-24 -31 0 -12 -76 -82 -115 -107 -18 -11 -45 -29 -61 -40 -29 -21 -101 -26
-156 -10 -20 5 -28 4 -28 -5 0 -6 9 -14 21 -17 17 -5 20 -11 15 -36 -4 -17
-10 -33 -14 -37 -4 -3 -20 -44 -36 -91 -38 -109 -73 -150 -158 -180 -35 -13
-66 -27 -69 -31 -3 -4 -43 -13 -89 -19 -46 -5 -86 -12 -89 -14 -3 -2 -51 -8
-106 -15 -55 -6 -123 -18 -152 -26 -72 -20 -523 -20 -585 0 -24 8 -72 17 -108
21 -36 4 -85 11 -110 16 -24 6 -78 14 -119 20 -41 5 -77 13 -80 17 -3 5 -33
18 -66 31 -78 29 -134 78 -146 128 -34 140 -51 429 -34 562 l7 53 17 -25 c26
-40 61 -62 133 -87 56 -19 83 -22 160 -18 60 2 105 10 127 21 19 9 39 17 46
17 7 0 20 9 30 20 21 23 41 26 48 8 2 -7 7 -10 10 -7 7 6 -13 71 -25 79 -3 3
-10 18 -13 33 -7 26 -6 27 39 27 45 0 46 -1 72 -52 31 -60 61 -92 126 -133 27
-17 48 -33 48 -36 0 -4 24 -17 53 -29 28 -12 59 -28 67 -35 46 -41 402 -46
429 -7 4 4 31 18 61 31 30 13 62 30 70 37 34 31 78 64 87 64 11 0 40 56 49 93
6 26 8 27 76 27 l69 0 -3 53 -3 52 -45 2 c-25 2 -106 7 -180 13 -74 5 -236 17
-360 26 -124 8 -234 20 -245 24 -11 5 -69 14 -129 21 -62 6 -115 17 -123 24
-15 16 -18 121 -3 130 12 8 13 35 1 35 -19 0 -43 -72 -39 -121 l3 -49 -38 0
c-45 0 -57 22 -57 108 -1 52 -2 55 -15 38 -9 -12 -15 -42 -15 -78 l0 -58 -42
6 c-24 4 -53 11 -65 15 -12 4 -75 11 -140 14 -126 7 -395 34 -402 41 -7 6 28
236 37 248 5 6 19 40 32 76 13 36 28 70 34 75 6 6 23 34 39 62 45 84 152 183
232 215 27 11 52 24 56 29 7 11 130 55 183 64 20 4 36 11 36 15 0 4 26 12 58
18 31 5 60 10 65 11 4 0 7 -7 7 -16z m-485 -923 c11 -5 88 -16 170 -25 211
-22 215 -23 215 -44 0 -12 -11 -23 -30 -30 -26 -8 -30 -15 -30 -46 0 -29 -5
-37 -25 -45 -14 -5 -25 -14 -25 -20 0 -14 -74 -46 -128 -55 -44 -7 -127 7
-172 30 -39 20 -104 86 -122 125 -18 39 -32 115 -24 128 6 10 142 -4 171 -18z
m703 -94 c75 -8 210 -20 300 -27 89 -6 165 -16 168 -20 3 -5 41 -9 85 -9 82 0
88 -4 68 -43 -14 -28 -83 -93 -106 -100 -10 -3 -43 -14 -73 -25 -30 -10 -83
-22 -117 -26 -78 -9 -224 9 -279 34 -24 11 -50 20 -58 20 -21 0 -156 132 -156
152 0 9 -7 24 -16 33 -25 24 -11 47 21 35 15 -6 88 -16 163 -24z m-164 -1469
c27 -18 31 -18 90 -2 33 10 63 21 66 25 3 4 16 10 30 11 32 5 29 -15 -11 -78
-16 -26 -29 -53 -29 -60 0 -17 -117 -18 -171 -1 -32 9 -39 16 -39 37 0 14 -3
51 -6 81 l-5 55 23 -25 c13 -14 36 -33 52 -43z m-188 -52 c12 -26 14 -48 9
-82 -8 -58 -42 -133 -60 -133 -21 0 -47 113 -39 168 7 46 8 46 18 20 15 -34
31 -24 40 25 4 20 9 37 11 37 2 0 12 -16 21 -35z"/>
<path d="M1520 1486 c0 -5 10 -24 22 -43 22 -36 69 -63 111 -63 44 0 96 28
103 56 10 40 -4 41 -36 4 -25 -30 -36 -35 -71 -34 -34 1 -48 9 -85 45 -24 24
-44 39 -44 35z"/>
</g>
</svg>
